<svg width="8" height="15" viewBox="0 0 8 15" fill="none" xmlns="http://www.w3.org/2000/svg">
<path d="M7.99391 7.36097C7.97001 7.1952 7.89444 7.04146 7.77812 6.92107L1.40532 0.282739C1.26381 0.115112 1.05933 0.0132421 0.840397 0.00120295C0.62128 -0.0108366 0.406981 0.0678801 0.247879 0.219025C0.0887718 0.369981 -0.000874545 0.580023 -0.000134503 0.799311C0.000606492 1.0188 0.0917358 1.2281 0.251952 1.37813L6.10222 7.4688L0.251952 13.5595C0.0917352 13.7095 0.000604498 13.9188 -0.000135086 14.1383C-0.000876101 14.3576 0.0887712 14.5676 0.247878 14.7186C0.406985 14.8697 0.621284 14.9484 0.840397 14.9364C1.05933 14.9244 1.26381 14.8225 1.40532 14.6549L7.77812 8.01652C7.94575 7.84204 8.0252 7.60089 7.99372 7.36103L7.99391 7.36097Z" fill="#252525"/>
</svg>
