<svg width="8" height="15" viewBox="0 0 8 15" fill="none" xmlns="http://www.w3.org/2000/svg">
<path d="M0.00658309 7.36097C0.0304768 7.1952 0.106049 7.04146 0.222367 6.92107L6.59517 0.282739C6.73668 0.115112 6.94116 0.0132421 7.16009 0.00120295C7.37921 -0.0108366 7.59351 0.0678801 7.75261 0.219025C7.91172 0.369981 8.00136 0.580023 8.00062 0.799311C7.99988 1.0188 7.90875 1.2281 7.74854 1.37813L1.89827 7.4688L7.74854 13.5595C7.90875 13.7095 7.99988 13.9188 8.00062 14.1383C8.00136 14.3576 7.91172 14.5676 7.75261 14.7186C7.5935 14.8697 7.3792 14.9484 7.16009 14.9364C6.94116 14.9244 6.73667 14.8225 6.59517 14.6549L0.222367 8.01652C0.0547393 7.84204 -0.0247164 7.60089 0.00676831 7.36103L0.00658309 7.36097Z" fill="#252525"/>
</svg>
