<svg width="23" height="23" viewBox="0 0 23 23" fill="none" xmlns="http://www.w3.org/2000/svg">
<path d="M22.098 22.9995C21.867 22.9995 21.6365 22.9114 21.4601 22.7355L0.264432 1.53984C-0.0881439 1.18778 -0.0881439 0.616512 0.264432 0.264432C0.616499 -0.0881439 1.18802 -0.0881439 1.53984 0.264432L22.7355 21.4601C23.0881 21.8127 23.0881 22.3834 22.7355 22.7355C22.5596 22.9114 22.3291 22.9995 22.098 22.9995H22.098Z" fill="#C80D0D"/>
<path d="M0.902382 22.9995C0.671362 22.9995 0.440588 22.9114 0.264432 22.7355C-0.0881439 22.3829 -0.0881439 21.8122 0.264432 21.4601L21.4601 0.264432C21.8127 -0.0881439 22.3834 -0.0881439 22.7355 0.264432C23.0881 0.616499 23.0881 1.18776 22.7355 1.53984L1.53984 22.7355C1.36418 22.9114 1.13341 22.9995 0.902395 22.9995H0.902382Z" fill="#C80D0D"/>
</svg>
