<svg width="77" height="77" viewBox="0 0 77 77" fill="none" xmlns="http://www.w3.org/2000/svg">
<circle cx="38.5" cy="38.5" r="38.5" fill="#D9D9D9"/>
<path d="M18.5114 45V43.5938H18.8693C19.1634 43.5938 19.4084 43.5362 19.6044 43.4212C19.8004 43.3018 19.9581 43.0952 20.0774 42.8011C20.201 42.5028 20.2947 42.0895 20.3587 41.5611C20.4268 41.0284 20.4759 40.3509 20.5057 39.5284L20.6847 35.1818H27.2301V45H25.7216V36.5881H22.1165L21.9631 40.0909C21.929 40.8963 21.8565 41.6058 21.7457 42.2195C21.6392 42.8288 21.4751 43.3402 21.2536 43.7536C21.0362 44.1669 20.7464 44.478 20.3842 44.6868C20.022 44.8956 19.5682 45 19.0227 45H18.5114ZM33.9865 45.2045C33.1001 45.2045 32.3224 44.9936 31.6534 44.5717C30.9886 44.1499 30.4688 43.5597 30.0938 42.8011C29.723 42.0426 29.5376 41.1562 29.5376 40.142C29.5376 39.1193 29.723 38.2266 30.0938 37.4638C30.4688 36.701 30.9886 36.1087 31.6534 35.6868C32.3224 35.2649 33.1001 35.054 33.9865 35.054C34.8729 35.054 35.6484 35.2649 36.3132 35.6868C36.9822 36.1087 37.5021 36.701 37.8729 37.4638C38.2479 38.2266 38.4354 39.1193 38.4354 40.142C38.4354 41.1562 38.2479 42.0426 37.8729 42.8011C37.5021 43.5597 36.9822 44.1499 36.3132 44.5717C35.6484 44.9936 34.8729 45.2045 33.9865 45.2045ZM33.9865 43.8494C34.6598 43.8494 35.2138 43.6768 35.6484 43.3317C36.0831 42.9865 36.4048 42.5327 36.6136 41.9702C36.8224 41.4077 36.9268 40.7983 36.9268 40.142C36.9268 39.4858 36.8224 38.8743 36.6136 38.3075C36.4048 37.7408 36.0831 37.2827 35.6484 36.9332C35.2138 36.5838 34.6598 36.4091 33.9865 36.4091C33.3132 36.4091 32.7592 36.5838 32.3246 36.9332C31.8899 37.2827 31.5682 37.7408 31.3594 38.3075C31.1506 38.8743 31.0462 39.4858 31.0462 40.142C31.0462 40.7983 31.1506 41.4077 31.3594 41.9702C31.5682 42.5327 31.8899 42.9865 32.3246 43.3317C32.7592 43.6768 33.3132 43.8494 33.9865 43.8494ZM46.7978 35.1818V36.5881H42.2466V45H40.7381V35.1818H46.7978ZM52.4787 45.2045C51.5923 45.2045 50.8146 44.9936 50.1456 44.5717C49.4808 44.1499 48.9609 43.5597 48.5859 42.8011C48.2152 42.0426 48.0298 41.1562 48.0298 40.142C48.0298 39.1193 48.2152 38.2266 48.5859 37.4638C48.9609 36.701 49.4808 36.1087 50.1456 35.6868C50.8146 35.2649 51.5923 35.054 52.4787 35.054C53.3651 35.054 54.1406 35.2649 54.8054 35.6868C55.4744 36.1087 55.9943 36.701 56.3651 37.4638C56.7401 38.2266 56.9276 39.1193 56.9276 40.142C56.9276 41.1562 56.7401 42.0426 56.3651 42.8011C55.9943 43.5597 55.4744 44.1499 54.8054 44.5717C54.1406 44.9936 53.3651 45.2045 52.4787 45.2045ZM52.4787 43.8494C53.152 43.8494 53.706 43.6768 54.1406 43.3317C54.5753 42.9865 54.897 42.5327 55.1058 41.9702C55.3146 41.4077 55.419 40.7983 55.419 40.142C55.419 39.4858 55.3146 38.8743 55.1058 38.3075C54.897 37.7408 54.5753 37.2827 54.1406 36.9332C53.706 36.5838 53.152 36.4091 52.4787 36.4091C51.8054 36.4091 51.2514 36.5838 50.8168 36.9332C50.3821 37.2827 50.0604 37.7408 49.8516 38.3075C49.6428 38.8743 49.5384 39.4858 49.5384 40.142C49.5384 40.7983 49.6428 41.4077 49.8516 41.9702C50.0604 42.5327 50.3821 42.9865 50.8168 43.3317C51.2514 43.6768 51.8054 43.8494 52.4787 43.8494Z" fill="#252525"/>
</svg>
