<svg width="236" height="72" viewBox="0 0 236 72" fill="none" xmlns="http://www.w3.org/2000/svg">
<path d="M115.358 61.5096C133.38 61.5096 151.497 62.1355 169.486 60.7712C187.071 59.4375 205.431 57.0712 222.004 49.7998C227.66 47.318 236.566 43.211 234.651 34.3449C233.115 27.2351 226.49 21.9231 221.291 18.6263C209.567 11.1913 195.463 7.93259 182.408 5.33399C159.818 0.837316 136.697 0.388024 113.84 1.5362C89.8927 2.73914 66.0857 6.51553 42.7427 12.7713C30.8702 15.9531 17.3945 18.9169 6.6881 26.0372C4.18237 27.7037 1.59737 29.4888 1.21553 33.0262C0.998493 35.0368 0.83793 37.7494 1.28451 39.7251C2.29417 44.1919 7.60128 47.9508 10.781 49.958C15.1789 52.7342 20.2971 54.9398 25.0373 56.6042C38.0876 61.1863 51.6327 64.2934 65.1159 66.5997C89.547 70.7788 114.521 71.593 139.18 70.3712C166.367 69.024 193.205 64.3676 219.245 55.3382" stroke="#FF4A59" stroke-width="2" stroke-linecap="round"/>
</svg>
