<svg width="92" height="92" viewBox="0 0 92 92" fill="none" xmlns="http://www.w3.org/2000/svg">
<rect x="14" y="12" width="62" height="68" fill="white"/>
<path d="M65.3684 0H26.6316C11.9114 0 0 11.9114 0 26.6316V65.3684C0 80.0886 11.9114 92 26.6316 92H65.3684C80.0886 92 92 80.0886 92 65.3684V26.6316C92 11.9114 80.0886 0 65.3684 0ZM64.6902 49.1958L36.7997 66.6274C34.2819 68.177 30.9888 66.4335 30.9888 63.4316V28.5684C30.9888 25.5665 34.2813 23.7263 36.7997 25.3726L64.6902 42.8042C67.0146 44.2572 67.0146 47.743 64.6902 49.196V49.1958Z" fill="#18B60C"/>
</svg>
