<svg width="22" height="22" viewBox="0 0 22 22" fill="none" xmlns="http://www.w3.org/2000/svg">
<path fill-rule="evenodd" clip-rule="evenodd" d="M11.256 6.67405e-05C5.31738 6.67405e-05 0.511719 4.79962 0.511719 10.7371C0.511719 12.9763 1.19503 15.0474 2.4088 16.827C2.50023 16.9626 2.52497 17.1324 2.47588 17.2884L1.38466 20.9373L4.96054 19.7041V19.7043C5.1153 19.6526 5.28524 19.6744 5.4222 19.7629C7.09706 20.8489 9.10226 21.4741 11.2558 21.4741C17.1973 21.4741 22 16.6745 22 10.737C22 4.79955 17.1973 0 11.2558 0L11.256 6.67405e-05ZM6.8576 4.68065L8.8133 7.91015L7.99899 8.71548L7.99917 8.71567C7.82867 8.88736 7.79438 9.15194 7.91523 9.36147C9.15783 11.5117 10.63 13.1845 12.6913 14.0924C12.8935 14.1823 13.13 14.1391 13.2874 13.9835L14.1518 13.1196L17.308 15.0908C16.9586 15.8768 16.5029 16.3448 15.9819 16.6174C15.3782 16.9333 14.6409 16.993 13.7994 16.8187C12.1165 16.47 10.0838 15.1483 8.42731 13.4549C6.77083 11.7617 5.48885 9.70265 5.16211 8.02743C4.99873 7.18989 5.07087 6.46864 5.38039 5.89685C5.64683 5.40443 6.09949 4.98295 6.85778 4.68054L6.8576 4.68065Z" fill="#18B60C"/>
</svg>
